<?xml version="1.0" encoding="UTF-8"?><svg id="logo" xmlns="http://www.w3.org/2000/svg" viewBox="0 0 408.5 408.5"><defs><style>.cls-1{stroke:#00a4ee;}.cls-1,.cls-2,.cls-3,.cls-4,.cls-5,.cls-6,.cls-7,.cls-8{fill:none;stroke-miterlimit:10;stroke-width:40px;}.cls-2{stroke:#659814;}.cls-3{stroke:#0080bb;}.cls-4{stroke:#7eba00;}.cls-5{stroke:#cc4727;}.cls-6{stroke:#cc9300;}.cls-7{stroke:#f15023;}.cls-8{stroke:#ffb900;}</style></defs><g><line class="cls-5" x1="89.13" y1="158.48" x2="144.51" y2="158.48"/><path class="cls-7" d="M90.08,158.44c-40.1,0-71.86-32.36-70-72.23,1.66-35.6,31.03-64.49,67.2-66.13,40.51-1.83,74.45,29.43,74.45,68.9v2.1l-.53,127.35"/></g><g><line class="cls-2" x1="250.02" y1="89.13" x2="250.02" y2="144.51"/><path class="cls-4" d="M250.07,90.08c0-40.1,32.36-71.86,72.23-70,35.6,1.66,64.49,31.03,66.13,67.2,1.83,40.51-29.43,74.45-68.9,74.45h-2.1s-127.35-.53-127.35-.53"/></g><g><line class="cls-3" x1="158.48" y1="319.37" x2="158.48" y2="264"/><path class="cls-1" d="M158.44,318.43c0,40.1-32.36,71.86-72.23,70-35.6-1.66-64.49-31.03-66.13-67.2-1.83-40.51,29.43-74.45,68.9-74.45h2.1s127.35,.53,127.35,.53"/></g><g><line class="cls-6" x1="319.37" y1="250.02" x2="264" y2="250.02"/><path class="cls-8" d="M318.43,250.07c40.1,0,71.86,32.36,70,72.23-1.66,35.6-31.03,64.49-67.2,66.13-40.51,1.83-74.45-29.43-74.45-68.9v-2.1s.53-127.35,.53-127.35"/></g></svg>